<?xml version="1.0" standalone="no"?><!DOCTYPE svg PUBLIC "-//W3C//DTD SVG 1.1//EN" "http://www.w3.org/Graphics/SVG/1.1/DTD/svg11.dtd"><svg t="1590202375883" class="icon" viewBox="0 0 1024 1024" version="1.1" xmlns="http://www.w3.org/2000/svg" p-id="3411" xmlns:xlink="http://www.w3.org/1999/xlink" width="200" height="200"><defs><style type="text/css"></style></defs><path d="M512 0.018C300.226 0.018 128.544 171.668 128.544 383.474 128.544 660.87 512 1023.982 512 1023.982s383.456-363.114 383.456-640.51C895.456 171.668 723.776 0.018 512 0.018z m92.81 543.73c-37.188 34.188-74.874 59.686-92.81 71.154-17.906-11.468-55.592-36.966-92.808-71.154-45.25-41.576-99.184-104.902-99.184-170.416 0-56.858 46.248-103.106 103.122-103.106 27.936 0 54.092 10.984 73.654 30.954l15.218 15.56 15.25-15.56c19.56-19.968 45.716-30.954 73.654-30.954 56.84 0 103.09 46.248 103.09 103.106-0.002 65.514-53.938 128.84-99.186 170.416z" fill="#00BFA6" p-id="3412"></path><path d="M512 0.018c-7.156 0-14.28 0.204-21.342 0.594 201.868 11.062 362.144 178.228 362.144 382.86 0 237.68-281.524 538.294-362.146 619.48 13.468 13.56 21.342 21.03 21.342 21.03s383.456-363.114 383.456-640.51C895.456 171.668 723.776 0.018 512 0.018z" fill="#00BFA6" opacity=".2" p-id="3413"></path><path d="M600.904 248.882c-34.844 0-66.31 14.312-88.904 37.376-22.592-23.062-54.06-37.376-88.872-37.376-68.716 0-124.432 55.716-124.432 124.45C298.696 515.546 512 639.996 512 639.996s213.338-124.45 213.338-266.664c0-68.732-55.718-124.45-124.434-124.45z m-9.968 278.664c-29.562 27.232-59.53 48.826-78.936 61.886-19.124-12.81-48.498-33.998-77.81-60.886-42.374-38.828-92.84-97.264-92.84-155.214 0-45.092 36.686-81.778 81.778-81.778 22.156 0 42.874 8.718 58.404 24.56L512 347.208l30.498-31.094c15.5-15.842 36.25-24.56 58.406-24.56 45.092 0 81.778 36.686 81.778 81.778 0 57.576-49.904 115.636-91.746 154.214z" fill="#00BFA6" p-id="3414"></path></svg>